<?xml version="1.0" standalone="no"?>
<!DOCTYPE svg PUBLIC "-//W3C//DTD SVG 20010904//EN"
 "http://www.w3.org/TR/2001/REC-SVG-20010904/DTD/svg10.dtd">
<svg version="1.0" xmlns="http://www.w3.org/2000/svg"
 width="1920.000000pt" height="512.000000pt" viewBox="0 0 1920.000000 512.000000"
 preserveAspectRatio="xMidYMid meet">

<g transform="translate(0.000000,512.000000) scale(0.100000,-0.100000)"
fill="#000000" stroke="none">
<path d="M9355 5034 c-293 -34 -460 -73 -679 -160 -297 -119 -547 -281 -940
-610 l-69 -58 7 49 c3 28 9 93 12 145 l6 95 -62 -115 c-34 -63 -71 -130 -83
-149 l-21 -34 -23 87 c-24 93 -124 306 -143 306 -3 0 -13 -28 -23 -63 -29
-100 -61 -170 -117 -258 -62 -97 -119 -207 -154 -303 -26 -68 -26 -69 -26
-390 l0 -323 34 -124 c40 -144 87 -277 144 -404 22 -49 47 -112 56 -140 50
-157 104 -456 127 -705 7 -74 16 -139 20 -144 12 -14 131 111 170 179 104 179
159 401 163 659 l3 149 28 15 c63 32 256 75 545 119 159 24 506 24 640 -1 134
-24 243 -53 332 -87 l78 -30 152 50 c84 27 223 69 308 93 l155 43 215 0 c230
0 314 -10 590 -66 235 -47 217 -38 224 -117 15 -146 60 -340 112 -478 55 -148
250 -501 283 -512 7 -2 11 15 11 50 0 64 26 397 40 523 18 150 39 280 80 495
49 259 75 418 95 595 24 211 19 204 75 96 53 -103 70 -126 70 -95 0 74 -24
261 -44 345 -16 70 -20 99 -11 95 48 -18 175 -114 254 -190 106 -103 107 -99
31 60 -107 222 -245 387 -420 503 l-95 63 80 -6 c160 -14 398 -57 553 -102 37
-11 25 11 -41 73 -174 163 -456 316 -777 423 -290 97 -592 150 -1005 176
l-100 7 133 30 c72 17 132 34 132 38 0 26 -274 81 -489 98 -122 10 -563 13
-636 5z"/>
<path d="M5188 3140 c-253 -40 -424 -197 -475 -433 -22 -104 -13 -270 19 -358
74 -202 214 -319 423 -356 74 -13 108 -13 190 -5 101 11 241 43 255 59 6 7 40
235 40 272 0 7 -23 -10 -52 -39 -31 -32 -78 -65 -117 -84 -57 -27 -79 -31
-163 -34 -118 -5 -177 12 -240 67 -137 121 -170 400 -70 584 57 105 157 157
302 157 115 0 180 -23 255 -92 l56 -51 -7 64 c-3 35 -9 98 -12 139 l-7 75 -69
17 c-84 21 -250 30 -328 18z"/>
<path d="M12265 3139 c-302 -47 -485 -267 -485 -583 0 -172 52 -308 156 -412
176 -177 462 -209 735 -83 l67 31 4 211 c4 213 6 223 46 299 2 4 -103 9 -232
10 l-236 3 -5 -30 c-9 -55 -23 -210 -20 -214 2 -1 19 8 37 23 33 25 130 56
175 56 23 0 23 -1 23 -130 0 -156 3 -152 -142 -158 -118 -5 -177 12 -242 69
-88 78 -132 212 -123 374 9 148 62 257 155 316 66 42 113 52 227 47 115 -4
183 -29 254 -93 l41 -37 0 38 c0 67 -19 217 -28 226 -29 29 -300 54 -407 37z"/>
<path d="M2806 3108 c-3 -18 -8 -62 -11 -98 -3 -36 -8 -90 -11 -120 l-6 -55
27 33 c50 60 105 84 211 90 l94 5 0 -391 c0 -430 -2 -450 -61 -524 l-30 -38
206 0 207 0 -31 31 c-60 59 -64 92 -69 528 l-4 393 94 -4 c105 -5 151 -23 209
-82 l35 -36 -13 137 c-7 75 -14 142 -17 148 -2 7 -39 8 -117 2 -123 -9 -663
-3 -691 8 -13 5 -18 0 -22 -27z"/>
<path d="M4440 3129 c-52 -4 -218 -7 -368 -8 l-272 -1 29 -41 c48 -66 52 -110
49 -541 -3 -385 -3 -394 -26 -443 -12 -27 -30 -57 -39 -67 -15 -17 -3 -18 298
-18 173 0 344 -3 380 -6 l65 -7 23 158 c12 86 20 159 18 161 -2 3 -12 -7 -21
-21 -25 -38 -114 -92 -181 -110 -37 -9 -103 -15 -177 -15 l-118 0 0 181 0 182
108 -5 c120 -6 155 -18 196 -70 14 -18 26 -28 26 -23 0 6 9 62 20 125 11 63
20 120 20 125 0 6 -66 9 -185 7 l-185 -3 0 135 0 136 143 0 c176 0 227 -13
286 -72 l42 -41 -6 39 c-3 21 -10 86 -15 143 -6 58 -11 105 -13 105 -1 1 -45
-2 -97 -5z"/>
<path d="M13570 3129 c-52 -4 -218 -7 -368 -8 l-272 -1 29 -41 c48 -66 52
-110 49 -541 -3 -385 -3 -394 -26 -443 -12 -27 -30 -57 -39 -67 -15 -17 -3
-18 298 -18 173 0 344 -3 380 -6 l65 -7 23 158 c12 86 20 159 18 161 -2 3 -12
-7 -21 -21 -25 -38 -114 -92 -181 -110 -37 -9 -103 -15 -177 -15 l-118 0 0
181 0 182 108 -5 c120 -6 155 -18 196 -70 14 -18 26 -28 26 -23 0 6 9 62 20
125 11 63 20 120 20 125 0 6 -66 9 -185 7 l-185 -3 0 135 0 136 143 0 c176 0
227 -13 286 -72 l42 -41 -6 39 c-3 21 -10 86 -15 143 -6 58 -11 105 -13 105
-1 1 -45 -2 -97 -5z"/>
<path d="M14530 3129 c-52 -4 -218 -7 -368 -8 l-272 -1 29 -41 c48 -66 52
-110 49 -541 -3 -385 -3 -394 -26 -443 -12 -27 -30 -57 -39 -67 -15 -17 -3
-18 298 -18 173 0 344 -3 380 -6 l65 -7 23 158 c12 86 20 159 18 161 -2 3 -12
-7 -21 -21 -25 -38 -114 -92 -181 -110 -37 -9 -103 -15 -177 -15 l-118 0 0
181 0 182 108 -5 c120 -6 155 -18 196 -70 14 -18 26 -28 26 -23 0 6 9 62 20
125 11 63 20 120 20 125 0 6 -66 9 -185 7 l-185 -3 0 135 0 136 143 0 c176 0
227 -13 286 -72 l42 -41 -6 39 c-3 21 -10 86 -15 143 -6 58 -11 105 -13 105
-1 1 -45 -2 -97 -5z"/>
<path d="M5809 3079 c16 -22 34 -63 40 -90 7 -31 11 -197 11 -428 0 -408 -3
-439 -55 -515 l-24 -36 191 0 c183 0 190 1 175 18 -9 10 -26 40 -39 67 -20 45
-23 70 -26 238 l-4 187 217 0 218 0 -6 -182 c-5 -191 -15 -238 -57 -299 l-21
-29 191 0 192 0 -26 30 c-52 63 -56 99 -56 525 0 426 4 462 56 525 l26 30
-193 0 c-188 0 -192 0 -175 -19 40 -44 57 -120 63 -273 l6 -148 -218 0 -217 0
4 153 c4 130 8 159 27 202 12 27 29 57 38 67 15 17 8 18 -176 18 l-191 0 29
-41z"/>
<path d="M14879 3079 c48 -66 52 -110 49 -541 -3 -385 -3 -394 -26 -443 -12
-27 -30 -57 -39 -67 -15 -17 -8 -18 176 -18 l192 0 -24 33 c-50 67 -52 82 -52
527 0 374 2 419 18 460 10 24 27 55 39 67 l21 23 -191 0 -192 0 29 -41z"/>
<path d="M15482 3082 c-7 -21 -80 -134 -162 -251 -93 -131 -149 -219 -146
-228 4 -8 80 -124 170 -257 90 -132 177 -269 195 -303 17 -35 34 -63 37 -63
16 0 309 52 312 55 2 2 -13 13 -35 23 -59 31 -110 92 -253 302 -73 107 -145
213 -161 235 l-27 41 124 169 c131 178 183 238 248 286 l39 29 -165 0 -165 0
-11 -38z"/>
<path d="M8065 1690 c-157 -14 -383 -54 -505 -90 -58 -18 -149 -44 -202 -58
l-98 -27 0 -147 0 -147 62 -33 c34 -18 70 -44 80 -58 10 -14 26 -73 38 -135
26 -147 74 -293 120 -364 59 -91 109 -120 269 -153 139 -28 543 -36 731 -15
232 28 408 82 478 150 66 63 142 232 172 382 22 115 33 146 61 185 81 111 245
104 314 -13 13 -24 34 -86 44 -138 38 -180 107 -344 172 -410 108 -108 399
-169 809 -169 359 1 548 40 639 132 64 65 130 242 162 433 18 108 30 128 110
170 l70 36 -3 147 -3 146 -50 14 c-27 7 -108 31 -180 52 -279 85 -483 113
-815 114 -186 0 -271 -4 -355 -17 -191 -30 -333 -69 -467 -128 -103 -45 -204
-62 -333 -56 -115 5 -144 12 -322 81 -111 43 -252 80 -393 101 -128 19 -455
27 -605 15z m558 -125 c63 -8 166 -28 229 -44 259 -65 295 -104 277 -300 -25
-268 -114 -502 -214 -558 -98 -55 -320 -92 -600 -100 -282 -8 -508 18 -600 70
-88 50 -147 211 -186 513 -25 197 -1 299 82 341 49 26 197 57 364 77 155 19
506 20 648 1z m2274 -5 c385 -50 429 -79 426 -285 -3 -261 -74 -536 -160 -617
-59 -56 -209 -87 -464 -95 -336 -11 -679 38 -792 112 -81 53 -174 333 -193
578 -12 149 27 194 216 250 191 57 329 75 592 76 165 1 255 -4 375 -19z"/>
<path d="M8263 1346 c-145 -47 -222 -150 -223 -297 0 -65 4 -85 30 -137 57
-113 145 -167 275 -167 67 0 89 4 137 28 31 15 71 44 89 64 174 199 55 499
-204 518 -38 3 -78 0 -104 -9z m-20 -197 c24 -30 22 -87 -5 -116 -30 -32 -87
-31 -118 2 -56 59 -9 154 69 141 20 -3 44 -15 54 -27z"/>
<path d="M10420 1347 c-139 -39 -224 -152 -224 -297 0 -125 61 -222 172 -277
48 -24 69 -28 137 -27 67 0 89 5 132 27 186 96 231 329 93 480 -79 87 -203
124 -310 94z m-31 -193 c61 -51 26 -144 -54 -144 -80 0 -115 93 -54 144 17 14
41 26 54 26 13 0 37 -12 54 -26z"/>
<path d="M9302 481 c-77 -141 -104 -275 -66 -330 30 -42 89 -61 189 -60 50 0
99 4 110 9 11 5 14 9 7 9 -36 2 -174 66 -210 97 -40 34 -42 38 -42 92 0 32 11
97 25 147 13 49 23 90 22 92 -2 1 -17 -24 -35 -56z"/>
</g>
</svg>
